<?xml version="1.0" encoding="utf-8"?>
<!-- Svg Vector Icons : http://www.onlinewebfonts.com/icon -->
<!DOCTYPE svg PUBLIC "-//W3C//DTD SVG 1.1//EN" "http://www.w3.org/Graphics/SVG/1.1/DTD/svg11.dtd">
<svg version="1.1" xmlns="http://www.w3.org/2000/svg" xmlns:xlink="http://www.w3.org/1999/xlink" x="0px" y="0px" viewBox="0 0 1000 1000" enable-background="new 0 0 1000 1000" xml:space="preserve">
<metadata> Svg Vector Icons : http://www.onlinewebfonts.com/icon </metadata>
<g><g transform="translate(0.000000,511.000000) scale(0.100000,-0.100000)"><path d="M3690,3680.8c-229.5-72.7-338.5-164.5-562.2-470.5l-187.4-258.2l-1059.5-9.6C852,2933.1,819.5,2931.2,722,2891c-311.7-126.2-510.6-346.1-589-650.2c-44-164.5-44-4857.4,0-5021.9c86.1-330.8,340.4-587.1,669.3-673.2c99.4-24.9,590.9-28.7,4197.7-28.7c3606.7,0,4098.2,3.8,4197.7,28.7c328.9,86.1,583.3,342.3,669.3,673.2c44,164.5,44,4857.4,0,5021.9c-78.4,304.1-277.3,524-589,650.2c-97.5,40.2-130,42.1-1158.9,51.6l-1059.5,9.6l-187.4,258.2c-202.7,277.3-263.9,334.7-457.1,428.4l-124.3,59.3l-1262.2,3.8C4045.7,3705.7,3749.3,3699.9,3690,3680.8z M5472.4,2007.5c340.4-86.1,638.7-235.2,906.5-453.2l133.9-109l223.8,221.8l223.8,223.8l240.9-904.6C7335,491,7440.2,81.7,7438.3,77.9c-3.8-3.8-378.7,93.7-835.7,216.1c-455.1,122.4-862.5,231.4-902.7,241l-74.6,21l223.8,223.8l221.8,223.8l-61.2,57.4c-147.3,137.7-393.9,271.5-621.5,336.6c-216.1,61.2-621.5,63.1-833.8,0c-571.8-164.5-963.8-571.8-1132.1-1178c-36.3-132-105.2-208.5-214.2-241c-193.1-57.4-388.2,84.2-388.2,279.2c0,109,70.8,340.4,162.6,537.4c307.9,654,891.2,1103.4,1608.3,1239.2C4804.9,2074.4,5262,2061,5472.4,2007.5z M7029-505.4c97.5-65,151.1-156.8,151.1-258.2c0-110.9-112.8-449.4-214.2-636.8c-283-531.6-793.6-937.1-1369.3-1088.2c-701.8-183.6-1480.2-7.6-1988.9,449.4c-53.5,47.8-103.3,86.1-110.9,86.1c-9.6,0-112.8-95.6-231.4-214.2c-118.6-118.6-218-210.4-223.7-206.5c-19.1,21-481.9,1788.1-468.5,1793.8c11.5,5.8,1677.2-432.2,1774.7-466.6c19.1-5.7-45.9-84.2-197-235.2l-225.7-225.7l88-74.6c294.5-246.7,613.9-361.4,1015.5-361.4c281.1,1.9,428.4,30.6,654,133.9c426.5,197,759.2,587.1,875.9,1036.5c57.4,216.1,154.9,309.8,327,311.7C6937.2-461.4,6987-476.7,7029-505.4z"/></g></g>
</svg>